<mxfile host="app.diagrams.net" modified="2020-12-16T22:53:16.210Z" agent="5.0 (Windows NT 10.0; Win64; x64) AppleWebKit/537.36 (KHTML, like Gecko) Chrome/87.0.4280.88 Safari/537.36" etag="2q1x0sC2Ln_o7V9lIg4h" version="14.0.1" type="github">
  <diagram name="Page-1" id="74e2e168-ea6b-b213-b513-2b3c1d86103e">
    <mxGraphModel dx="1221" dy="1532" grid="1" gridSize="10" guides="1" tooltips="1" connect="1" arrows="1" fold="1" page="1" pageScale="1" pageWidth="1100" pageHeight="850" background="#ffffff" math="0" shadow="0">
      <root>
        <mxCell id="0" />
        <mxCell id="1" parent="0" />
        <mxCell id="77e6c97f196da883-1" value="Pool" style="swimlane;html=1;childLayout=stackLayout;startSize=20;rounded=0;shadow=0;labelBackgroundColor=none;strokeWidth=1;fontFamily=Verdana;fontSize=8;align=center;strokeColor=#525252;" parent="1" vertex="1">
          <mxGeometry x="70" y="-170" width="1340" height="1380" as="geometry" />
        </mxCell>
        <mxCell id="77e6c97f196da883-2" value="main" style="swimlane;html=1;startSize=20;strokeColor=#525252;" parent="77e6c97f196da883-1" vertex="1">
          <mxGeometry y="20" width="160" height="1360" as="geometry" />
        </mxCell>
        <mxCell id="77e6c97f196da883-8" value="index&lt;br&gt;(메인페이지)" style="rounded=1;whiteSpace=wrap;html=1;shadow=0;labelBackgroundColor=none;strokeWidth=1;fontFamily=Verdana;fontSize=8;align=center;fontStyle=1;" parent="77e6c97f196da883-2" vertex="1">
          <mxGeometry x="30" y="65" width="100" height="60" as="geometry" />
        </mxCell>
        <mxCell id="IVls7ptfHBeM5PuD90JV-12" value="검색엔진" style="rhombus;whiteSpace=wrap;html=1;fontStyle=1;" vertex="1" parent="77e6c97f196da883-2">
          <mxGeometry x="40" y="320" width="80" height="60" as="geometry" />
        </mxCell>
        <mxCell id="IVls7ptfHBeM5PuD90JV-16" value="장바구니&lt;br&gt;(아이콘)" style="rhombus;whiteSpace=wrap;html=1;fontStyle=1;" vertex="1" parent="77e6c97f196da883-2">
          <mxGeometry x="40" y="640" width="80" height="60" as="geometry" />
        </mxCell>
        <mxCell id="IVls7ptfHBeM5PuD90JV-3" value="login" style="rhombus;whiteSpace=wrap;html=1;fontStyle=1;" vertex="1" parent="77e6c97f196da883-2">
          <mxGeometry x="30" y="990" width="80" height="60" as="geometry" />
        </mxCell>
        <mxCell id="IVls7ptfHBeM5PuD90JV-95" value="&lt;h1&gt;login 할 때&lt;/h1&gt;&lt;div&gt;join 아이콘이 로그아웃 아이콘으로 이벤트 버튼 발생&lt;/div&gt;&lt;div&gt;&lt;br&gt;&lt;/div&gt;" style="text;html=1;strokeColor=none;fillColor=none;spacing=5;spacingTop=-20;whiteSpace=wrap;overflow=hidden;rounded=0;" vertex="1" parent="77e6c97f196da883-2">
          <mxGeometry x="15" y="1230" width="130" height="120" as="geometry" />
        </mxCell>
        <mxCell id="IVls7ptfHBeM5PuD90JV-96" value="로그아웃" style="rhombus;whiteSpace=wrap;html=1;fontStyle=1;" vertex="1" parent="77e6c97f196da883-2">
          <mxGeometry x="30" y="1170" width="80" height="60" as="geometry" />
        </mxCell>
        <mxCell id="IVls7ptfHBeM5PuD90JV-97" value="" style="endArrow=none;dashed=1;html=1;strokeColor=#000000;entryX=0.5;entryY=1;entryDx=0;entryDy=0;exitX=0.5;exitY=0;exitDx=0;exitDy=0;" edge="1" parent="77e6c97f196da883-2" source="IVls7ptfHBeM5PuD90JV-96" target="IVls7ptfHBeM5PuD90JV-3">
          <mxGeometry width="50" height="50" relative="1" as="geometry">
            <mxPoint x="300" y="1180" as="sourcePoint" />
            <mxPoint x="350" y="1130" as="targetPoint" />
          </mxGeometry>
        </mxCell>
        <mxCell id="77e6c97f196da883-26" style="edgeStyle=orthogonalEdgeStyle;rounded=1;html=1;labelBackgroundColor=none;startArrow=none;startFill=0;endArrow=classicThin;endFill=1;jettySize=auto;orthogonalLoop=1;strokeWidth=1;fontFamily=Verdana;fontSize=8;fontStyle=1;shape=link;" parent="77e6c97f196da883-1" source="77e6c97f196da883-8" target="77e6c97f196da883-11" edge="1">
          <mxGeometry relative="1" as="geometry" />
        </mxCell>
        <mxCell id="77e6c97f196da883-3" value="Lane 2(네비게이터)" style="swimlane;html=1;startSize=20;strokeColor=#525252;" parent="77e6c97f196da883-1" vertex="1">
          <mxGeometry x="160" y="20" width="160" height="1360" as="geometry" />
        </mxCell>
        <mxCell id="IVls7ptfHBeM5PuD90JV-80" value="" style="shape=curlyBracket;whiteSpace=wrap;html=1;rounded=1;strokeColor=#000000;size=0.5;" vertex="1" parent="77e6c97f196da883-3">
          <mxGeometry x="-50" y="960" width="190" height="120" as="geometry" />
        </mxCell>
        <mxCell id="IVls7ptfHBeM5PuD90JV-79" value="" style="endArrow=none;dashed=1;html=1;dashPattern=1 3;strokeWidth=2;entryX=0.5;entryY=1;entryDx=0;entryDy=0;" edge="1" parent="77e6c97f196da883-3" source="IVls7ptfHBeM5PuD90JV-10" target="77e6c97f196da883-11">
          <mxGeometry width="50" height="50" relative="1" as="geometry">
            <mxPoint x="10" y="530" as="sourcePoint" />
            <mxPoint x="60" y="480" as="targetPoint" />
          </mxGeometry>
        </mxCell>
        <mxCell id="77e6c97f196da883-11" value="Home" style="rounded=1;whiteSpace=wrap;html=1;shadow=0;labelBackgroundColor=none;strokeWidth=1;fontFamily=Verdana;fontSize=8;align=center;fillColor=#dae8fc;fontStyle=1;" parent="77e6c97f196da883-3" vertex="1">
          <mxGeometry x="30" y="65" width="100" height="60" as="geometry" />
        </mxCell>
        <mxCell id="77e6c97f196da883-9" value="SHOP" style="rounded=1;whiteSpace=wrap;html=1;shadow=0;labelBackgroundColor=none;strokeWidth=1;fontFamily=Verdana;fontSize=8;align=center;fillColor=#dae8fc;fontStyle=1;" parent="77e6c97f196da883-3" vertex="1">
          <mxGeometry x="30" y="530" width="100" height="60" as="geometry" />
        </mxCell>
        <mxCell id="IVls7ptfHBeM5PuD90JV-10" value="MYPAGE" style="rounded=1;whiteSpace=wrap;html=1;shadow=0;labelBackgroundColor=none;strokeWidth=1;fontFamily=Verdana;fontSize=8;align=center;fillColor=#dae8fc;fontStyle=1;" vertex="1" parent="77e6c97f196da883-3">
          <mxGeometry x="30" y="760" width="100" height="60" as="geometry" />
        </mxCell>
        <mxCell id="IVls7ptfHBeM5PuD90JV-15" value="CONTECT" style="rounded=1;whiteSpace=wrap;html=1;shadow=0;labelBackgroundColor=none;strokeWidth=1;fontFamily=Verdana;fontSize=8;align=center;fillColor=#dae8fc;fontStyle=1;" vertex="1" parent="77e6c97f196da883-3">
          <mxGeometry x="30" y="1220" width="100" height="60" as="geometry" />
        </mxCell>
        <mxCell id="77e6c97f196da883-4" value="header 카테고리" style="swimlane;html=1;startSize=20;strokeColor=#525252;" parent="77e6c97f196da883-1" vertex="1">
          <mxGeometry x="320" y="20" width="160" height="1360" as="geometry" />
        </mxCell>
        <mxCell id="77e6c97f196da883-12" value="카테고리" style="rounded=1;whiteSpace=wrap;html=1;shadow=0;labelBackgroundColor=none;strokeWidth=1;fontFamily=Verdana;fontSize=8;align=center;fontStyle=1;" parent="77e6c97f196da883-4" vertex="1">
          <mxGeometry x="30" y="490" width="100" height="60" as="geometry" />
        </mxCell>
        <mxCell id="IVls7ptfHBeM5PuD90JV-25" value="장바구니" style="rounded=1;whiteSpace=wrap;html=1;shadow=0;labelBackgroundColor=none;strokeWidth=1;fontFamily=Verdana;fontSize=8;align=center;fontStyle=1;" vertex="1" parent="77e6c97f196da883-4">
          <mxGeometry x="30" y="575" width="100" height="60" as="geometry" />
        </mxCell>
        <mxCell id="IVls7ptfHBeM5PuD90JV-63" value="미정" style="rounded=1;whiteSpace=wrap;html=1;shadow=0;labelBackgroundColor=none;strokeWidth=1;fontFamily=Verdana;fontSize=8;align=center;fontStyle=1;fillColor=#f8cecc;strokeColor=#b85450;" vertex="1" parent="77e6c97f196da883-4">
          <mxGeometry x="30" y="1220" width="100" height="60" as="geometry" />
        </mxCell>
        <mxCell id="IVls7ptfHBeM5PuD90JV-78" value="" style="shape=curlyBracket;whiteSpace=wrap;html=1;rounded=1;strokeColor=#000000;size=0.3333333333333333;" vertex="1" parent="77e6c97f196da883-4">
          <mxGeometry x="-30" y="520" width="60" height="90" as="geometry" />
        </mxCell>
        <mxCell id="IVls7ptfHBeM5PuD90JV-87" value="로그인" style="rounded=1;whiteSpace=wrap;html=1;strokeColor=#000000;" vertex="1" parent="77e6c97f196da883-4">
          <mxGeometry x="20" y="930" width="120" height="60" as="geometry" />
        </mxCell>
        <mxCell id="IVls7ptfHBeM5PuD90JV-93" value="회원이 아닐경우" style="rounded=1;whiteSpace=wrap;html=1;strokeColor=#000000;" vertex="1" parent="77e6c97f196da883-4">
          <mxGeometry x="20" y="1050" width="120" height="60" as="geometry" />
        </mxCell>
        <mxCell id="IVls7ptfHBeM5PuD90JV-94" value="" style="endArrow=classic;html=1;strokeColor=#000000;exitX=0.987;exitY=0;exitDx=0;exitDy=0;exitPerimeter=0;entryX=0;entryY=0.5;entryDx=0;entryDy=0;" edge="1" parent="77e6c97f196da883-4" target="IVls7ptfHBeM5PuD90JV-93">
          <mxGeometry width="50" height="50" relative="1" as="geometry">
            <mxPoint x="-22.470000000000027" y="1080" as="sourcePoint" />
            <mxPoint x="50" y="1120" as="targetPoint" />
          </mxGeometry>
        </mxCell>
        <mxCell id="IVls7ptfHBeM5PuD90JV-20" value="" style="edgeStyle=orthogonalEdgeStyle;rounded=0;orthogonalLoop=1;jettySize=auto;html=1;fontStyle=1;fillColor=#f8cecc;exitX=1;exitY=0.5;exitDx=0;exitDy=0;strokeColor=#b85450;" edge="1" parent="77e6c97f196da883-1" source="IVls7ptfHBeM5PuD90JV-12" target="IVls7ptfHBeM5PuD90JV-19">
          <mxGeometry relative="1" as="geometry">
            <Array as="points">
              <mxPoint x="560" y="370" />
            </Array>
          </mxGeometry>
        </mxCell>
        <mxCell id="77e6c97f196da883-5" value="Lane 4" style="swimlane;html=1;startSize=20;strokeColor=#525252;" parent="77e6c97f196da883-1" vertex="1">
          <mxGeometry x="480" y="20" width="160" height="1360" as="geometry" />
        </mxCell>
        <mxCell id="IVls7ptfHBeM5PuD90JV-19" value="상품조회" style="whiteSpace=wrap;html=1;fontStyle=1;" vertex="1" parent="77e6c97f196da883-5">
          <mxGeometry x="20" y="490" width="120" height="60" as="geometry" />
        </mxCell>
        <mxCell id="IVls7ptfHBeM5PuD90JV-102" value="" style="shape=curlyBracket;whiteSpace=wrap;html=1;rounded=1;strokeColor=#000000;size=0.5;" vertex="1" parent="77e6c97f196da883-5">
          <mxGeometry x="-20" y="1020" width="140" height="120" as="geometry" />
        </mxCell>
        <mxCell id="IVls7ptfHBeM5PuD90JV-24" value="" style="edgeStyle=orthogonalEdgeStyle;rounded=0;orthogonalLoop=1;jettySize=auto;html=1;fontStyle=1;" edge="1" parent="77e6c97f196da883-1" source="IVls7ptfHBeM5PuD90JV-19" target="IVls7ptfHBeM5PuD90JV-23">
          <mxGeometry relative="1" as="geometry" />
        </mxCell>
        <mxCell id="77e6c97f196da883-29" style="edgeStyle=orthogonalEdgeStyle;rounded=1;html=1;labelBackgroundColor=none;startArrow=none;startFill=0;startSize=5;endArrow=classicThin;endFill=1;endSize=5;jettySize=auto;orthogonalLoop=1;strokeWidth=1;fontFamily=Verdana;fontSize=8;fontStyle=1;" parent="77e6c97f196da883-1" source="77e6c97f196da883-12" edge="1">
          <mxGeometry relative="1" as="geometry">
            <mxPoint x="500" y="540" as="targetPoint" />
          </mxGeometry>
        </mxCell>
        <mxCell id="IVls7ptfHBeM5PuD90JV-40" value="" style="edgeStyle=orthogonalEdgeStyle;rounded=0;orthogonalLoop=1;jettySize=auto;html=1;entryX=0;entryY=0.5;entryDx=0;entryDy=0;exitX=1;exitY=0.5;exitDx=0;exitDy=0;fontStyle=1;" edge="1" parent="77e6c97f196da883-1" source="IVls7ptfHBeM5PuD90JV-23" target="IVls7ptfHBeM5PuD90JV-45">
          <mxGeometry relative="1" as="geometry">
            <mxPoint x="720.0588235294119" y="695" as="targetPoint" />
            <Array as="points">
              <mxPoint x="890" y="540" />
              <mxPoint x="890" y="520" />
              <mxPoint x="1035" y="520" />
            </Array>
          </mxGeometry>
        </mxCell>
        <mxCell id="77e6c97f196da883-6" value="Lane 5" style="swimlane;html=1;startSize=20;strokeColor=#525252;" parent="77e6c97f196da883-1" vertex="1">
          <mxGeometry x="640" y="20" width="180" height="1360" as="geometry" />
        </mxCell>
        <mxCell id="IVls7ptfHBeM5PuD90JV-23" value="상품상세페이지" style="ellipse;whiteSpace=wrap;html=1;fontStyle=1;" vertex="1" parent="77e6c97f196da883-6">
          <mxGeometry x="30" y="480" width="120" height="80" as="geometry" />
        </mxCell>
        <mxCell id="IVls7ptfHBeM5PuD90JV-105" value="일반회원" style="rounded=1;whiteSpace=wrap;html=1;strokeColor=#000000;" vertex="1" parent="77e6c97f196da883-6">
          <mxGeometry x="30" y="990" width="120" height="60" as="geometry" />
        </mxCell>
        <mxCell id="IVls7ptfHBeM5PuD90JV-107" value="판매자회원" style="rounded=1;whiteSpace=wrap;html=1;strokeColor=#000000;" vertex="1" parent="77e6c97f196da883-6">
          <mxGeometry x="30" y="1110" width="120" height="60" as="geometry" />
        </mxCell>
        <mxCell id="IVls7ptfHBeM5PuD90JV-108" value="" style="endArrow=classic;html=1;strokeColor=#000000;exitX=0.876;exitY=-0.002;exitDx=0;exitDy=0;exitPerimeter=0;entryX=0;entryY=0.5;entryDx=0;entryDy=0;" edge="1" parent="77e6c97f196da883-6" target="IVls7ptfHBeM5PuD90JV-107">
          <mxGeometry width="50" height="50" relative="1" as="geometry">
            <mxPoint x="-57.36000000000013" y="1139.7600000000002" as="sourcePoint" />
            <mxPoint x="-30" y="1320" as="targetPoint" />
          </mxGeometry>
        </mxCell>
        <mxCell id="IVls7ptfHBeM5PuD90JV-60" value="" style="endArrow=none;dashed=1;html=1;exitX=0.5;exitY=0;exitDx=0;exitDy=0;entryX=0;entryY=0.5;entryDx=0;entryDy=0;" edge="1" parent="77e6c97f196da883-1" target="IVls7ptfHBeM5PuD90JV-55">
          <mxGeometry width="50" height="50" relative="1" as="geometry">
            <mxPoint x="730" y="500" as="sourcePoint" />
            <mxPoint x="849.9999999999932" y="140" as="targetPoint" />
            <Array as="points">
              <mxPoint x="730" y="240" />
            </Array>
          </mxGeometry>
        </mxCell>
        <mxCell id="IVls7ptfHBeM5PuD90JV-53" value="Lane 5" style="swimlane;html=1;startSize=20;strokeColor=#525252;" vertex="1" parent="77e6c97f196da883-1">
          <mxGeometry x="820" y="20" width="180" height="1360" as="geometry" />
        </mxCell>
        <mxCell id="IVls7ptfHBeM5PuD90JV-50" value="상세설명" style="ellipse;whiteSpace=wrap;html=1;fontStyle=1;" vertex="1" parent="IVls7ptfHBeM5PuD90JV-53">
          <mxGeometry x="30" y="80" width="120" height="80" as="geometry" />
        </mxCell>
        <mxCell id="IVls7ptfHBeM5PuD90JV-55" value="Q&amp;amp;A" style="ellipse;whiteSpace=wrap;html=1;fontStyle=1;" vertex="1" parent="IVls7ptfHBeM5PuD90JV-53">
          <mxGeometry x="30" y="180" width="120" height="80" as="geometry" />
        </mxCell>
        <mxCell id="IVls7ptfHBeM5PuD90JV-56" value="리뷰" style="ellipse;whiteSpace=wrap;html=1;fontStyle=1;" vertex="1" parent="IVls7ptfHBeM5PuD90JV-53">
          <mxGeometry x="30" y="280" width="120" height="80" as="geometry" />
        </mxCell>
        <mxCell id="IVls7ptfHBeM5PuD90JV-57" value="판매정보" style="ellipse;whiteSpace=wrap;html=1;fontStyle=1;" vertex="1" parent="IVls7ptfHBeM5PuD90JV-53">
          <mxGeometry x="30" y="380" width="120" height="80" as="geometry" />
        </mxCell>
        <mxCell id="77e6c97f196da883-7" value="Lane 6" style="swimlane;html=1;startSize=20;strokeColor=#525252;" parent="77e6c97f196da883-1" vertex="1">
          <mxGeometry x="1000" y="20" width="170" height="1360" as="geometry" />
        </mxCell>
        <mxCell id="IVls7ptfHBeM5PuD90JV-45" value="장바구니" style="rounded=1;whiteSpace=wrap;html=1;shadow=0;labelBackgroundColor=none;strokeWidth=1;fontFamily=Verdana;fontSize=8;align=center;fontStyle=1;" vertex="1" parent="77e6c97f196da883-7">
          <mxGeometry x="40" y="470" width="100" height="60" as="geometry" />
        </mxCell>
        <mxCell id="IVls7ptfHBeM5PuD90JV-41" value="Lane 7" style="swimlane;html=1;startSize=20;strokeColor=#525252;" vertex="1" parent="77e6c97f196da883-1">
          <mxGeometry x="1170" y="20" width="170" height="1360" as="geometry" />
        </mxCell>
        <mxCell id="IVls7ptfHBeM5PuD90JV-46" value="주문결제" style="rounded=1;whiteSpace=wrap;html=1;shadow=0;labelBackgroundColor=none;strokeWidth=1;fontFamily=Verdana;fontSize=8;align=center;fontStyle=1;fillColor=#fff2cc;strokeColor=#d6b656;" vertex="1" parent="IVls7ptfHBeM5PuD90JV-41">
          <mxGeometry x="35" y="575" width="100" height="60" as="geometry" />
        </mxCell>
        <mxCell id="IVls7ptfHBeM5PuD90JV-52" value="" style="endArrow=none;dashed=1;html=1;exitX=0.5;exitY=0;exitDx=0;exitDy=0;entryX=0;entryY=0.5;entryDx=0;entryDy=0;" edge="1" parent="77e6c97f196da883-1" source="IVls7ptfHBeM5PuD90JV-23" target="IVls7ptfHBeM5PuD90JV-50">
          <mxGeometry width="50" height="50" relative="1" as="geometry">
            <mxPoint x="620" y="270" as="sourcePoint" />
            <mxPoint x="670" y="220" as="targetPoint" />
            <Array as="points">
              <mxPoint x="730" y="140" />
            </Array>
          </mxGeometry>
        </mxCell>
        <mxCell id="IVls7ptfHBeM5PuD90JV-62" value="" style="endArrow=none;dashed=1;html=1;entryX=0;entryY=0.5;entryDx=0;entryDy=0;exitX=0.5;exitY=0;exitDx=0;exitDy=0;" edge="1" parent="77e6c97f196da883-1" source="IVls7ptfHBeM5PuD90JV-23" target="IVls7ptfHBeM5PuD90JV-57">
          <mxGeometry width="50" height="50" relative="1" as="geometry">
            <mxPoint x="740" y="500" as="sourcePoint" />
            <mxPoint x="859.9999999999932" y="350" as="targetPoint" />
            <Array as="points">
              <mxPoint x="730" y="470" />
              <mxPoint x="730" y="440" />
            </Array>
          </mxGeometry>
        </mxCell>
        <mxCell id="IVls7ptfHBeM5PuD90JV-64" value="" style="edgeStyle=orthogonalEdgeStyle;rounded=0;orthogonalLoop=1;jettySize=auto;html=1;strokeColor=#000000;" edge="1" parent="77e6c97f196da883-1" source="IVls7ptfHBeM5PuD90JV-15" target="IVls7ptfHBeM5PuD90JV-63">
          <mxGeometry relative="1" as="geometry" />
        </mxCell>
        <mxCell id="IVls7ptfHBeM5PuD90JV-68" value="" style="edgeStyle=orthogonalEdgeStyle;rounded=0;orthogonalLoop=1;jettySize=auto;html=1;entryX=0;entryY=0.5;entryDx=0;entryDy=0;exitX=1;exitY=0.5;exitDx=0;exitDy=0;fontStyle=1;" edge="1" parent="77e6c97f196da883-1" source="IVls7ptfHBeM5PuD90JV-23" target="IVls7ptfHBeM5PuD90JV-46">
          <mxGeometry relative="1" as="geometry">
            <mxPoint x="799.9999999999932" y="550" as="sourcePoint" />
            <mxPoint x="1045" y="550" as="targetPoint" />
            <Array as="points">
              <mxPoint x="890" y="540" />
              <mxPoint x="890" y="625" />
            </Array>
          </mxGeometry>
        </mxCell>
        <mxCell id="IVls7ptfHBeM5PuD90JV-71" value="바로주문&lt;br&gt;or&lt;br&gt;장바구니" style="edgeLabel;html=1;align=center;verticalAlign=middle;resizable=0;points=[];" vertex="1" connectable="0" parent="IVls7ptfHBeM5PuD90JV-68">
          <mxGeometry x="0.8679" y="7" relative="1" as="geometry">
            <mxPoint x="-311.67" y="-48" as="offset" />
          </mxGeometry>
        </mxCell>
        <mxCell id="IVls7ptfHBeM5PuD90JV-69" style="edgeStyle=orthogonalEdgeStyle;rounded=0;orthogonalLoop=1;jettySize=auto;html=1;exitX=1;exitY=0.5;exitDx=0;exitDy=0;entryX=0.5;entryY=0;entryDx=0;entryDy=0;strokeColor=#000000;" edge="1" parent="77e6c97f196da883-1" source="IVls7ptfHBeM5PuD90JV-45" target="IVls7ptfHBeM5PuD90JV-46">
          <mxGeometry relative="1" as="geometry">
            <mxPoint x="1250" y="530" as="sourcePoint" />
          </mxGeometry>
        </mxCell>
        <mxCell id="IVls7ptfHBeM5PuD90JV-72" style="edgeStyle=orthogonalEdgeStyle;rounded=0;orthogonalLoop=1;jettySize=auto;html=1;exitX=1;exitY=0.5;exitDx=0;exitDy=0;entryX=0;entryY=0.5;entryDx=0;entryDy=0;strokeColor=#000000;" edge="1" parent="77e6c97f196da883-1" source="IVls7ptfHBeM5PuD90JV-25" target="IVls7ptfHBeM5PuD90JV-46">
          <mxGeometry relative="1" as="geometry" />
        </mxCell>
        <mxCell id="IVls7ptfHBeM5PuD90JV-90" value="" style="endArrow=classic;html=1;strokeColor=#000000;exitX=0.987;exitY=0;exitDx=0;exitDy=0;exitPerimeter=0;entryX=0;entryY=0.5;entryDx=0;entryDy=0;" edge="1" parent="77e6c97f196da883-1" source="IVls7ptfHBeM5PuD90JV-80" target="IVls7ptfHBeM5PuD90JV-87">
          <mxGeometry width="50" height="50" relative="1" as="geometry">
            <mxPoint x="390" y="900" as="sourcePoint" />
            <mxPoint x="440" y="850" as="targetPoint" />
          </mxGeometry>
        </mxCell>
        <mxCell id="IVls7ptfHBeM5PuD90JV-106" value="" style="endArrow=classic;html=1;strokeColor=#000000;exitX=0.876;exitY=-0.002;exitDx=0;exitDy=0;exitPerimeter=0;entryX=0;entryY=0.5;entryDx=0;entryDy=0;" edge="1" parent="77e6c97f196da883-1" source="IVls7ptfHBeM5PuD90JV-102" target="IVls7ptfHBeM5PuD90JV-105">
          <mxGeometry width="50" height="50" relative="1" as="geometry">
            <mxPoint x="630" y="1100" as="sourcePoint" />
            <mxPoint x="680" y="1050" as="targetPoint" />
          </mxGeometry>
        </mxCell>
        <mxCell id="IVls7ptfHBeM5PuD90JV-61" value="" style="endArrow=none;dashed=1;html=1;entryX=0;entryY=0.5;entryDx=0;entryDy=0;" edge="1" parent="1" target="IVls7ptfHBeM5PuD90JV-56">
          <mxGeometry width="50" height="50" relative="1" as="geometry">
            <mxPoint x="800" y="320" as="sourcePoint" />
            <mxPoint x="929.9999999999932" y="80" as="targetPoint" />
            <Array as="points">
              <mxPoint x="800" y="250" />
              <mxPoint x="800" y="170" />
            </Array>
          </mxGeometry>
        </mxCell>
        <mxCell id="IVls7ptfHBeM5PuD90JV-75" value="&lt;h1&gt;일반회원page&lt;/h1&gt;&lt;div&gt;&lt;br&gt;&lt;/div&gt;&lt;div&gt;&lt;br&gt;&lt;/div&gt;" style="text;html=1;strokeColor=none;fillColor=none;spacing=5;spacingTop=-20;whiteSpace=wrap;overflow=hidden;rounded=0;dashed=1;" vertex="1" parent="1">
          <mxGeometry x="70" y="-230" width="190" height="50" as="geometry" />
        </mxCell>
        <mxCell id="IVls7ptfHBeM5PuD90JV-77" value="" style="endArrow=none;html=1;strokeColor=#000000;exitX=1;exitY=0.5;exitDx=0;exitDy=0;" edge="1" parent="1" source="IVls7ptfHBeM5PuD90JV-16">
          <mxGeometry width="50" height="50" relative="1" as="geometry">
            <mxPoint x="750" y="730" as="sourcePoint" />
            <mxPoint x="960" y="450" as="targetPoint" />
            <Array as="points">
              <mxPoint x="960" y="520" />
            </Array>
          </mxGeometry>
        </mxCell>
      </root>
    </mxGraphModel>
  </diagram>
</mxfile>
